<svg id="Bold" xmlns="http://www.w3.org/2000/svg" viewBox="0 0 512.51 512.58">
  <defs>
    <style>
      .cls-1 {
        fill: #fff;
      }
    </style>
  </defs>
  <title>skype</title>
  <path class="cls-1" d="M497.26,310.34C534.34,143.72,388.37-7.64,217,21.42,123.9-36.33,0,28.93,0,139.65a137.62,137.62,0,0,0,19.46,70.63c-34.46,167,112.7,316.18,284,285.14C424.49,559.45,558.27,431.77,497.26,310.34ZM334.31,410.82c-45,18.49-119,18.6-163.75-4.85-63.85-34-75.2-110.7-20.12-110.7,41.52,0,28.38,48.41,70.3,68.14,19.24,8.9,60.6,9.82,84.65-6.4,23.74-15.89,21.56-40.89,8.66-52.84-34.2-31.57-132.06-19-176.79-74.3-19.44-24-23.11-66.29.79-97,41.64-53.59,163.84-56.86,216.38-16.39,48.51,37.55,35.42,87.38-3.73,87.38-47.08,0-22.34-61.61-98.35-61.61-55.1,0-76.78,39.19-38,58.26C267,226.69,401.05,218,401.05,320.09c-.11,42.49-26.16,74.17-66.74,90.73Z" transform="translate(0 0.05)"/>
</svg>
