<svg id="Слой_1" data-name="Слой 1" xmlns="http://www.w3.org/2000/svg" viewBox="0 0 512 433.18">
  <defs>
    <style>
      .cls-1 {
        fill: #fff;
      }
    </style>
  </defs>
  <title>telegram</title>
  <path class="cls-1" d="M504.09,50.86C497.84,43.21,488.47,39,477.71,39a51.86,51.86,0,0,0-18.41,3.66L25.91,208.11c-23,8.77-26.1,21.94-25.9,29s4,20,27.5,27.51l.42.12,89.9,25.73,48.62,139c6.62,18.95,21.5,30.73,38.83,30.73,10.93,0,21.67-4.58,31.08-13.24L292,395.8l80.66,64.95,0,0,.77.61.21.17c9,6.95,18.76,10.63,28.31,10.63h0c18.67,0,33.54-13.82,37.88-35.22l71-350.64C513.68,72.25,511.29,59.66,504.09,50.86ZM147.9,285.6,321.34,197l-108,114.75a14.91,14.91,0,0,0-3.64,6.68l-20.83,84.36ZM216,424.93c-.72.66-1.45,1.25-2.17,1.8l19.32-78.25,35.15,28.3ZM481.43,80.37,410.41,431c-.68,3.36-2.86,11.17-8.48,11.17-2.77,0-6.25-1.52-9.82-4.26l-91.39-73.59,0,0L246.3,320.51,402.47,154.56a15,15,0,0,0-17.74-23.63L127.86,262.15,36.74,236.08,470,70.69A22,22,0,0,1,477.71,69c.92,0,2.56.11,3.16.86C481.67,70.83,482.68,74.14,481.43,80.37Z" transform="translate(0 -39)"/>
</svg>
