<svg id="Слой_1" data-name="Слой 1" xmlns="http://www.w3.org/2000/svg" viewBox="0 0 512 304">
  <defs>
    <style>
      .cls-1 {
        fill: #fff;
      }
    </style>
  </defs>
  <title>vk</title>
  <path class="cls-1" d="M455.74,306.1l-.28-.26c-4.37-4-17.76-17.06-22.28-22.76-5.3-7.1-4.07-11.76-.1-18.74,5-8.81,15.08-22.34,25.72-36.66,34.09-45.85,56.11-77.59,51.58-100.14l-2.45-12-125.91,0c-.44,1.19-7,30.06-34.73,79.2-20.11,35.64-33.3,46.84-37.94,48.81l-.72-.22c-1.51-1.86-4.15-6.9-5.24-19.89-1.13-13.61-.13-30.08.84-46,1.14-18.68,2.12-34.81-.23-46.35l-3.82-18.81c-4.62-.74-21.54-7.26-68.68-7.76-40.8-.42-52.79,5.48-58.68,10.67l-19.47,17.19L178,140.66c9.37,3.15,12.48,6.79,15,24.81a226.33,226.33,0,0,1,.74,49.13c-2.59,25.28-8.78,30-9.1,30.23-1.06-.37-10.11-4.32-25.81-37.51-10.89-23-20.43-50.25-27.41-70.14-8-22.77-6.55-17.92-10.6-28.68H-1l7.88,20.39C39.75,214,69.9,280.43,110.25,328.16c44.58,52.73,100,80.34,174.62,80.34h15v-15c0-14,1.16-24.12,3.65-31.78a78.63,78.63,0,0,1,5.66-12.56c3.15-6,6.23-8.51,7.91-8.89,1.52-.34,4.2.77,7.17,3,8.52,6.35,15.29,14.7,22.45,23.55,10.34,12.76,21,25.95,38,34.59,9.27,4.72,26.25,7.1,35.6,7.1H511l-.64-15.62C509.39,369.53,491,340.33,455.74,306.1Zm-34.87,72.4h-.24c-6.45.1-18.75-2-22.33-3.83C387,368.93,379.15,359.2,370,347.93c-8-9.89-16.29-20.13-27.83-28.72-9.33-7-17.8-9-24.53-9a32.44,32.44,0,0,0-7.17.8c-7.81,1.76-19,7.37-27.85,24.17A104.86,104.86,0,0,0,275,352.44a106.06,106.06,0,0,0-4.62,25.65c-56.25-3.2-100.13-25.45-137.21-69.3C98.69,268,71.57,211,42.84,138.49h57.23c.94,2.64,2,5.54,3,8.61,7.51,21.45,17.82,50.82,30,75.87,17.38,35.86,33.25,51.86,51.46,51.86,9.09,0,17.24-3.85,23.57-11.14,9-10.4,14.27-27.56,16-52.46a259.65,259.65,0,0,0-1.42-50c-1.26-8.87-3.06-18.18-7.43-26.52a364.63,364.63,0,0,1,59.43,2.76c1.43,7.83.5,23.22-.41,38.1-2.19,36-4.45,73.07,14.58,90.44a31.39,31.39,0,0,0,7,4.75l9.69,3c3.74-1.16,25.39,9.83,66.39-61.72,13.14-22.93,25.37-49.35,31.95-66.6,15.28,0,67.31,0,73.42,0-8.66,19.05-29.18,46.24-42.59,64.28C423,225.51,412.93,239.09,407,249.5c-11,19.33-9.16,36.56,2.31,51.76l.18.23c6.39,8.15,22.2,23.22,25.47,26.26,23.74,23.05,35.19,39.61,40.63,50.74H420.87Z" transform="translate(1 -104.5)"/>
</svg>
