<svg id="Слой_1" data-name="Слой 1" xmlns="http://www.w3.org/2000/svg" viewBox="0 0 512 512">
  <defs>
    <style>
      .cls-1 {
        fill: #fff;
      }
    </style>
  </defs>
  <title>whatsapp</title>
  <path class="cls-1" d="M123.83,475.46a254.09,254.09,0,0,0,131.26,36.36C395.92,511.82,512,396.9,512,255.91S396.08,0,255.09,0C114.54,0,.18,114.8.18,255.91A256,256,0,0,0,36.54,388.16L0,512ZM30.18,255.91C30.18,131.34,131.07,30,255.09,30,380.21,30,482,131.34,482,255.91S380.21,481.82,255.09,481.82a224.11,224.11,0,0,1-121-35.27l-5.77-3.68-84,24.78,24.77-84-3.68-5.77A225.82,225.82,0,0,1,30.18,255.91Z"/>
  <path class="cls-1" d="M124.63,208.75c5,26,19.66,76.05,62.46,118.86S279.93,385.12,306,390.07c29.79,5.68,73.5,6.53,94.87-14.83l11.91-11.91a31.84,31.84,0,0,0,0-45L365.1,270.68a31.86,31.86,0,0,0-45,0l-11.9,11.91c-7.28,7.27-21,7.3-28.33.09l-47.51-49.5-.22-.22a18.72,18.72,0,0,1,0-26.43L244,194.62a31.82,31.82,0,0,0,0-45L196.39,102a31.87,31.87,0,0,0-45,0l-11.91,11.91h0C122.41,130.93,116.73,167.29,124.63,208.75Zm36-73.66c12.5-12.21,11.83-12.45,13.21-12.45a1.84,1.84,0,0,1,1.31.54c50.19,50.46,48.17,47.49,48.17,48.94a1.78,1.78,0,0,1-.54,1.3l-11.91,11.91a48.65,48.65,0,0,0-.12,68.71l47.53,49.53.22.22c19,19,51.81,19,70.84,0l11.9-11.9a1.85,1.85,0,0,1,2.61,0c50.19,50.45,48.17,47.49,48.17,48.93a1.75,1.75,0,0,1-.54,1.3L379.61,354c-8.16,8.16-34.15,13-68.05,6.59-22.63-4.32-66.13-17.09-103.26-54.22s-49.9-80.63-54.21-103.26C147.63,169.24,152.51,143.25,160.67,135.09Z"/>
</svg>
